HIERARCHY
ROOT Hips
{
	OFFSET 62.890800 8.863803 43.568401
	CHANNELS 6 Xposition Yposition Zposition Zrotation Xrotation Yrotation
	JOINT Chest
	{
		OFFSET -0.160400 1.630001 7.806301
		CHANNELS 6 Xposition Yposition Zposition Zrotation Xrotation Yrotation
		JOINT Chest2
		{
			OFFSET 0.000000 0.000000 3.197998
			CHANNELS 6 Xposition Yposition Zposition Zrotation Xrotation Yrotation
			JOINT Neck
			{
				OFFSET 0.000000 0.000001 7.440701
				CHANNELS 6 Xposition Yposition Zposition Zrotation Xrotation Yrotation
				JOINT Head
				{
					OFFSET 0.000000 0.000000 2.173901
					CHANNELS 6 Xposition Yposition Zposition Zrotation Xrotation Yrotation
					End Site
					{
						OFFSET 0.000000 0.000001 10.420303
					}
				}
			}
			JOINT LeftCollar
			{
				OFFSET 2.426399 -1.880099 4.759399
				CHANNELS 6 Xposition Yposition Zposition Zrotation Xrotation Yrotation
				JOINT LeftShoulder
				{
					OFFSET 4.420197 0.000000 0.000000
					CHANNELS 6 Xposition Yposition Zposition Zrotation Xrotation Yrotation
					JOINT LeftElbow
					{
						OFFSET 0.000000 -0.000001 -10.347099
						CHANNELS 6 Xposition Yposition Zposition Zrotation Xrotation Yrotation
						JOINT LeftWrist
						{
							OFFSET 0.000000 -0.000001 -12.496300
							CHANNELS 6 Xposition Yposition Zposition Zrotation Xrotation Yrotation
							End Site
							{
								OFFSET 0.000000 0.000000 -2.173901
							}
						}
					}
				}
			}
			JOINT RightCollar
			{
				OFFSET -2.781502 -1.903799 5.072601
				CHANNELS 6 Xposition Yposition Zposition Zrotation Xrotation Yrotation
				JOINT RightShoulder
				{
					OFFSET -4.012100 0.000000 0.000000
					CHANNELS 6 Xposition Yposition Zposition Zrotation Xrotation Yrotation
					JOINT RightElbow
					{
						OFFSET 0.000000 -0.000001 -10.346600
						CHANNELS 6 Xposition Yposition Zposition Zrotation Xrotation Yrotation
						JOINT RightWrist
						{
							OFFSET 0.000000 -0.000001 -12.562599
							CHANNELS 6 Xposition Yposition Zposition Zrotation Xrotation Yrotation
							End Site
							{
								OFFSET 0.000000 0.000000 -2.173901
							}
						}
					}
				}
			}
		}
	}
	JOINT LeftHip
	{
		OFFSET 2.047997 -0.047200 -2.693199
		CHANNELS 6 Xposition Yposition Zposition Zrotation Xrotation Yrotation
		JOINT LeftKnee
		{
			OFFSET 0.000000 -0.000001 -18.824400
			CHANNELS 6 Xposition Yposition Zposition Zrotation Xrotation Yrotation
			JOINT LeftAnkle
			{
				OFFSET 0.000000 -0.000002 -19.078199
				CHANNELS 6 Xposition Yposition Zposition Zrotation Xrotation Yrotation
				End Site
				{
					OFFSET 0.000000 -9.342100 0.000001
				}
			}
		}
	}
	JOINT RightHip
	{
		OFFSET -2.129898 -0.022300 -2.538300
		CHANNELS 6 Xposition Yposition Zposition Zrotation Xrotation Yrotation
		JOINT RightKnee
		{
			OFFSET 0.000000 -0.000001 -18.644600
			CHANNELS 6 Xposition Yposition Zposition Zrotation Xrotation Yrotation
			JOINT RightAnkle
			{
				OFFSET 0.000000 -0.000002 -18.801399
				CHANNELS 6 Xposition Yposition Zposition Zrotation Xrotation Yrotation
				End Site
				{
					OFFSET 0.000000 -8.914600 0.000001
				}
			}
		}
	}
}
MOTION
Frames: 5
Frame Time: 0.041667
32.180893 -18.387920 17.147623 166.557236 25.130402 -1.010633 -0.160395 1.629999 7.806303 9.984946 20.403426 5.247680 0.000008 -0.000004 3.198004 -23.884914 -10.543145 -2.669449 -0.000011 0.000006 7.440706 27.075143 33.609110 -12.303838 -0.000002 0.000001 2.173904 5.089121 5.870863 8.171594 2.426388 -1.880094 4.759403 17.121881 1.126451 8.917453 4.420187 0.000002 0.000001 -9.497825 31.486281 -90.770639 0.000004 0.000003 -10.347092 4.555866 -17.273041 5.195158 0.000001 -0.000006 -12.496296 57.853376 3.065460 -1.311533 -2.781508 -1.903800 5.072599 0.563084 19.345830 12.058742 -4.012099 -0.000002 0.000006 -3.863388 -4.213314 89.970387 -0.000001 0.000001 -10.346600 -18.977105 -11.961231 -10.460781 -0.000001 0.000001 -12.562594 -18.575533 -19.825814 -11.287489 2.047994 -0.047201 -2.693200 144.438188 -0.695943 85.179323 0.000002 0.000004 -18.824402 -28.157272 189.691989 -25.887873 -0.000002 -0.000005 -19.078199 24.455004 -2.485108 38.183240 -2.129896 -0.022301 -2.538298 -161.548085 11.127125 -131.808376 0.000006 -0.000001 -18.644606 -7.549852 163.667698 57.471739 0.000008 0.000000 -18.801397 -11.945985 11.637602 -46.169063
32.225700 -18.392517 17.110619 166.536746 25.001685 -1.013426 -0.160401 1.629998 7.806307 10.029744 20.374666 5.200623 0.000007 -0.000002 3.198000 -23.926605 -10.547370 -2.692138 0.000003 0.000006 7.440698 27.129925 33.626380 -12.204973 -0.000001 -0.000003 2.173906 5.077864 5.806772 8.194034 2.426406 -1.880097 4.759395 17.219436 1.001577 9.253023 4.420189 0.000007 -0.000001 -9.284380 31.618097 -91.019552 0.000003 0.000004 -10.347092 4.289413 -17.347439 5.134509 0.000002 0.000002 -12.496298 57.930953 3.107511 -1.338033 -2.781491 -1.903797 5.072602 0.854624 19.751244 12.043633 -4.012100 -0.000001 0.000003 -4.168108 -3.784224 89.768705 0.000002 0.000001 -10.346600 -22.122021 -11.534857 -10.864504 -0.000001 -0.000000 -12.562597 -16.081033 -19.789150 -11.307645 2.047996 -0.047195 -2.693199 144.503771 -0.646004 85.222169 -0.000000 0.000001 -18.824402 -28.298276 189.909885 -25.882081 0.000001 -0.000003 -19.078201 24.572167 -2.558367 38.232377 -2.129900 -0.022298 -2.538299 -161.584722 11.173781 -131.759800 -0.000004 0.000000 -18.644592 -7.616475 163.701316 57.321816 0.000002 -0.000001 -18.801395 -12.283718 11.614919 -46.255906
32.275894 -18.396915 17.068027 166.497787 24.868790 -1.000039 -0.160395 1.630002 7.806300 10.099096 20.315310 5.140852 0.000017 -0.000002 3.197999 -23.968809 -10.547387 -2.720616 -0.000000 0.000004 7.440701 27.124338 33.671187 -12.032868 -0.000008 -0.000004 2.173904 5.086795 5.730409 8.221976 2.426407 -1.880095 4.759397 17.412246 0.786445 9.592142 4.420193 0.000003 0.000003 -9.192323 31.904913 -91.213037 0.000004 0.000001 -10.347092 4.057734 -17.388741 5.046832 0.000001 -0.000003 -12.496300 58.008052 3.169942 -1.363770 -2.781495 -1.903796 5.072600 1.115212 20.182523 12.040122 -4.012092 -0.000000 0.000000 -4.414890 -3.448472 89.588265 -0.000002 0.000001 -10.346603 -24.414535 -11.233609 -11.137134 0.000004 -0.000001 -12.562598 -14.319965 -19.759754 -11.302884 2.047993 -0.047196 -2.693198 144.597004 -0.604123 85.286940 -0.000001 0.000004 -18.824404 -28.438065 190.138765 -25.863024 -0.000006 -0.000001 -19.078201 24.710310 -2.606062 38.226636 -2.129893 -0.022300 -2.538302 -161.600582 11.237480 -131.715280 -0.000004 0.000002 -18.644596 -7.674285 163.733431 57.135431 -0.000001 -0.000003 -18.801399 -12.595275 11.719239 -46.068116
32.331097 -18.401417 17.022722 166.508810 24.726316 -1.016214 -0.160392 1.629998 7.806304 10.122028 20.245864 5.095116 0.000002 0.000001 3.197997 -24.025764 -10.540415 -2.756005 -0.000003 -0.000005 7.440696 27.127973 33.705283 -11.851083 0.000006 0.000002 2.173907 5.102354 5.670829 8.220818 2.426398 -1.880101 4.759398 18.955423 0.439249 10.327969 4.420201 0.000004 0.000003 -10.199018 32.622964 -91.807312 0.000004 0.000004 -10.347103 3.823363 -17.403129 4.950872 0.000002 -0.000000 -12.496299 58.065829 3.231370 -1.399366 -2.781506 -1.903802 5.072602 1.506850 20.834691 12.172145 -4.012093 0.000000 -0.000004 -4.840518 -3.280432 89.156174 -0.000001 -0.000004 -10.346594 -26.139100 -11.089738 -11.295646 -0.000003 -0.000001 -12.562597 -13.081924 -19.752540 -11.286867 2.048005 -0.047198 -2.693203 144.652629 -0.565949 85.353732 0.000002 0.000002 -18.824404 -28.584203 190.363273 -25.829735 -0.000008 -0.000004 -19.078203 24.862213 -2.630121 38.135473 -2.129891 -0.022299 -2.538298 -161.649267 11.299467 -131.689763 0.000001 0.000002 -18.644606 -7.683424 163.764591 56.926519 0.000002 -0.000001 -18.801399 -12.820989 11.969427 -45.548250
32.391792 -18.407017 16.973726 166.557018 24.561746 -1.035049 -0.160401 1.630001 7.806306 10.121575 20.167592 5.020577 0.000005 -0.000001 3.197998 -24.087212 -10.518121 -2.800892 0.000004 0.000003 7.440701 27.118641 33.754925 -11.625469 -0.000006 -0.000000 2.173906 5.113702 5.605564 8.230830 2.426404 -1.880099 4.759401 19.002531 0.084022 10.710525 4.420189 0.000006 -0.000002 -9.951198 32.979541 -91.987950 -0.000001 0.000001 -10.347095 3.714586 -17.399883 4.892841 -0.000001 -0.000003 -12.496304 57.943281 3.348950 -1.442968 -2.781497 -1.903799 5.072607 1.778665 21.481905 12.385491 -4.012099 0.000003 -0.000000 -5.086759 -3.133015 88.707123 -0.000003 0.000005 -10.346597 -27.138502 -11.048616 -11.334782 0.000002 0.000003 -12.562592 -12.552748 -19.762184 -11.282420 2.047994 -0.047198 -2.693197 144.679922 -0.579154 85.430196 -0.000001 0.000003 -18.824402 -28.710850 190.570775 -25.781567 -0.000000 -0.000004 -19.078199 25.035447 -2.595633 37.898056 -2.129888 -0.022300 -2.538301 -161.704578 11.359548 -131.673548 -0.000006 -0.000001 -18.644596 -7.701893 163.877330 56.704046 0.000001 -0.000002 -18.801399 -13.071082 12.198223 -45.084894
